# AST/ASF file generated using VICON BodyLanguage
# -----------------------------------------------
:version 1.10
:name VICON
:units
  mass 1.0
  length 0.45
  angle deg
:documentation
   .ast/.asf automatically generated from VICON data using
   VICON BodyBuilder and BodyLanguage model FoxedUp or BRILLIANT.MOD
:root
   order TX TY TZ RX RY RZ
   axis XYZ
   position 0 0 0  
   orientation 0 0 0 
:bonedata
  begin
     id 1 
     name lhipjoint
     direction 0.57768 -0.667037 0.470475 
     length 2.36008 
     axis 0 0 0  XYZ
  end
  begin
     id 2 
     name lfemur
     direction 0.34202 -0.939693 0  
     length 6.97235  
     axis 0 0 20  XYZ
    dof rx ry rz
    limits (-160.0 20.0)
           (-70.0 70.0)
           (-60.0 70.0)
  end
  begin
     id 3 
     name ltibia
     direction 0.34202 -0.939693 0   
     length 6.93428   
     axis 0 0 20   XYZ
    dof rx
    limits (-10.0 170.0)
  end
  begin
     id 4 
     name lfoot
     direction 0.133018 -0.365463 0.921272   
     length 2.18603   
     axis -90 7.62852e-016 20   XYZ
    dof rx rz
    limits (-45.0 90.0)
           (-70.0 20.0)
  end
  begin
     id 5 
     name ltoes
     direction 1.53519e-011 -4.22055e-011 1   
     length 1.07924   
     axis -90 7.62852e-016 20   XYZ
    dof rx
    limits (-90.0 20.0)
  end
  begin
     id 6 
     name rhipjoint
     direction -0.577712 -0.667019 0.470462   
     length 2.36015  
     axis 0 0 0  XYZ 
  end
  begin
     id 7 
     name rfemur
     direction -0.34202 -0.939693 0   
     length 6.71195   
     axis 0 0 -20   XYZ
    dof rx ry rz
    limits (-160.0 20.0)
           (-70.0 70.0)
           (-70.0 60.0)
  end
  begin
     id 8 
     name rtibia
     direction -0.34202 -0.939693 0   
     length 7.04592   
     axis 0 0 -20   XYZ
    dof rx
    limits (-10.0 170.0)
 end
 begin
     id 9 
     name rfoot
     direction -0.113796 -0.312651 0.943027   
     length 2.03846  
     axis -90 -7.62852e-016 -20   XYZ
    dof rx rz
    limits (-45.0 90.0)
           (-20.0 70.0)
  end
  begin
     id 10 
     name rtoes
     direction -1.53586e-011 -4.218e-011 1   
     length 1.01562   
     axis -90 -7.62852e-016 -20   XYZ
    dof rx
    limits (-90.0 20.0)
  end
  begin
     id 11 
     name lowerback
     direction -0.0417299 0.991937 -0.119667   
     length 2.05257   
     axis 0 0 0   XYZ
    dof rx ry rz
    limits (-20.0 45.0)
           (-30.0 30.0)
           (-30.0 30.0)
  end
  begin
     id 12 
     name upperback
     direction -0.00017666 0.999999 0.00105178   
     length 2.05693   
     axis 0 0 0   XYZ
    dof rx ry rz
    limits (-20.0 45.0)
           (-30.0 30.0)
           (-30.0 30.0)
  end
  begin
     id 13 
     name thorax
     direction 0.0185169 0.998203 0.0569866   
     length 2.0932   
     axis 0 0 0   XYZ
    dof rx ry rz
    limits (-20.0 45.0)
           (-30.0 30.0)
           (-30.0 30.0)
  end
  begin
     id 14 
     name lowerneck
     direction -0.0212406 0.982645 0.184277   
     length 1.72509   
     axis 0 0 0   XYZ
    dof rx ry rz
    limits (-20.0 45.0)
           (-30.0 30.0)
           (-30.0 30.0)
  end
  begin
     id 15 
     name upperneck
     direction 0.00528579 0.965323 -0.261004   
     length 1.76294   
     axis 0 0 0   XYZ
    dof rx ry rz
    limits (-20.0 45.0)
           (-30.0 30.0)
           (-30.0 30.0)
  end
  begin
     id 16
     name head
     direction 0.00695421 0.994078 -0.108445  
     length 1.78678  
     axis 0 0 0   XYZ
    dof rx ry rz
    limits (-20.0 45.0)
           (-30.0 30.0)
           (-30.0 30.0)
  end
  begin
     id 17 
     name lclavicle
     direction 0.97277 0.211305 -0.095232  
     length 3.84823  
     axis 0 0 0   XYZ
    dof ry rz
    limits (-20.0 10.0)
           (0.0 20.0)
  end
  begin
     id 18 
     name lhumerus
     direction 1 -4.48957e-011 -1.98313e-027   
     length 4.97185   
     axis 180 -30 -90   XYZ
    dof rx ry rz
    limits (-60.0 90.0)
           (-90.0 90.0)
           (-90.0 90.0)
  end
  begin
     id 19
     name lradius
     direction 1 -4.4898e-011 7.31063e-027   
     length 3.35811   
     axis 180 -30 -90   XYZ
    dof rx
    limits (-10.0 170.0)
  end
  begin
     id 20
     name lwrist
     direction 1 -4.48938e-011 9.95048e-027   
     length 1.67905   
     axis -8.75986e-015 90 90   XYZ
    dof ry
    limits (-180.0 0.0)
 end
  begin
     id 21 
     name lhand
     direction 1 -4.4901e-011 1.9901e-026   
     length 0.622776   
     axis -1.26985e-014 90 90   XYZ
    dof rx rz
    limits (-90.0 90.0)
           (-45.0 45.0)
  end
  begin
     id 22 
     name lfingers
     direction 1 -4.48961e-011 3.98019e-026   
     length 0.502098   
     axis -2.5397e-014 90 90   XYZ
    dof rx
    limits (0.0 90.0)
  end
  begin
     id 23
     name lthumb
     direction 0.707107 -6.34933e-011 0.707107   
     length 0.720915   
     axis -90 45 2.85299e-015   XYZ
    dof rx rz
    limits (-45.0 45.0)
           (-45.0 45.0)
  end
  begin
     id 24 
     name rclavicle
     direction -0.990867 0.133739 -0.0172226   
     length 3.78845  
     axis 0 0 0   XYZ 
    dof ry rz
    limits (-10.0 20.0)
           (-20.0 0.0)
  end
  begin
     id 25 
     name rhumerus
     direction -1 -4.48972e-011 -1.99267e-027  
     length 4.96493   
     axis 180 30 90   XYZ
    dof rx ry rz
    limits (-90.0 60.0)
           (-90.0 90.0)
           (-90.0 90.0)
  end
  begin
     id 26 
     name rradius
     direction -1 -4.48969e-011 8.96093e-027   
     length 3.34929   
     axis 180 30 90   XYZ
    dof rx
    limits (-10.0 170.0)
  end
  begin
     id 27 
     name rwrist
     direction -1 -4.48953e-011 9.95048e-027   
     length 1.67464   
     axis -8.75986e-015 -90 -90   XYZ
    dof ry
    limits (-180.0 0.0)
  end
  begin
     id 28
     name rhand
     direction -1 -4.49001e-011 1.9901e-026   
     length 0.638041   
     axis -1.26985e-014 -90 -90   XYZ
    dof rx rz
    limits (-90.0 90.0)
           (-45.0 45.0)
  end
  begin
     id 29
     name rfingers
     direction -1 -4.48967e-011 3.98019e-026   
     length 0.514405   
     axis -2.5397e-014 -90 -90   XYZ
    dof rx
    limits (0.0 90.0)
  end
  begin
     id 30
     name rthumb
     direction -0.707107 -6.34904e-011 0.707107   
     length 0.738586   
     axis -90 -45 -2.85299e-015   XYZ
    dof rx rz
    limits (-45.0 45.0)
           (-45.0 45.0)
  end
:hierarchy
  begin
    root lhipjoint rhipjoint lowerback
    lhipjoint lfemur
    lfemur ltibia
    ltibia lfoot
    lfoot ltoes
    rhipjoint rfemur
    rfemur rtibia
    rtibia rfoot
    rfoot rtoes
    lowerback upperback
    upperback thorax
    thorax lowerneck lclavicle rclavicle
    lowerneck upperneck
    upperneck head
    lclavicle lhumerus
    lhumerus lradius
    lradius lwrist
    lwrist lhand lthumb
    lhand lfingers
    rclavicle rhumerus
    rhumerus rradius
    rradius rwrist
    rwrist rhand rthumb
    rhand rfingers
  end

#!OML:ASF E:\Mandelcareful walks\Project 1\Capture day 1\Session 1\Subject1.ASF
:FULLY-SPECIFIED
:DEGREES
44
root -30.8681 16.2917 3.20326 -187.169 79.5319 -193.403
lowerback -3.70056 -1.21408 -2.03498
upperback 1.48118 -1.565 1.64825
thorax 3.70474 -0.844776 2.73539
lowerneck -15.6522 10.7154 6.0259
upperneck 27.4227 15.9669 -5.06593
head 12.6073 7.32495 -0.305809
rclavicle 1.27222e-014 -7.15625e-015
rhumerus -31.0773 -5.44036 -79.0985
rradius 28.3388
rwrist -10.1769
rhand -9.82836 -29.6685
rfingers 7.12502
rthumb 16.1489 -59.0157
lclavicle 1.27222e-014 -7.15625e-015
lhumerus -28.5448 8.77421 89.744
lradius 29.951
lwrist 11.796
lhand -20.9425 -14.9721
lfingers 7.12502
lthumb 5.42988 14.9383
rfemur -12.4924 0.745 15.8513
rtibia 30.1322
rfoot -27.434 -21.0473
rtoes 6.58107
lfemur -16.479 0.780587 -15.586
ltibia 33.9728
lfoot -23.3846 12.897
ltoes -0.835688
45
root -30.8575 16.2883 3.21208 -188.657 79.3757 -194.988
lowerback -3.89041 -1.1084 -2.23742
upperback 1.50374 -1.41085 1.64797
thorax 3.83097 -0.774998 2.85691
lowerneck -14.7908 11.948 6.94441
upperneck 26.7734 17.5893 -5.41501
head 12.4159 8.12874 -0.344463
rclavicle 7.95139e-016 -2.8625e-014
rhumerus -30.8626 -5.42615 -78.6799
rradius 28.0256
rwrist -9.77074
rhand -10.1817 -29.4394
rfingers 7.12502
rthumb 15.8087 -58.8139
lclavicle 7.95139e-016 -2.8625e-014
lhumerus -28.6586 9.53043 89.9276
lradius 29.7364
lwrist 11.5527
lhand -21.5928 -15.2812
lfingers 7.12502
lthumb 4.80194 14.6443
rfemur -12.6126 0.338227 15.523
rtibia 30.3026
rfoot -27.4248 -20.785
rtoes 6.38742
lfemur -16.4169 0.846935 -16.16
ltibia 33.6301
lfoot -23.1731 13.6951
ltoes -1.69327
46
root -30.847 16.291 3.21544 -188.934 79.4016 -195.41
lowerback -4.15547 -0.941414 -2.23054
upperback 1.47387 -1.18515 1.68157
thorax 3.93523 -0.663993 2.90144
lowerneck -13.8046 13.0166 8.11451
upperneck 26.1499 19.062 -6.12304
head 12.2975 8.85445 -0.572159
rclavicle -1.28216e-014 -1.90833e-014
rhumerus -30.7666 -5.7166 -78.1914
rradius 27.759
rwrist -9.25126
rhand -10.3708 -29.3817
rfingers 7.12502
rthumb 15.6265 -58.7705
lclavicle -1.28216e-014 -1.90833e-014
lhumerus -28.8337 10.1329 90.0399
lradius 29.4582
lwrist 11.48
lhand -22.2641 -15.6559
lfingers 7.12502
lthumb 4.15378 14.2834
rfemur -12.7881 0.221513 15.4552
rtibia 30.3751
rfoot -27.4101 -20.6602
rtoes 6.18035
lfemur -16.3353 0.33535 -16.3834
ltibia 33.231
lfoot -23.0024 14.8941
ltoes -2.35184
47
root -30.8409 16.2955 3.21768 -187.614 79.5738 -194.251
lowerback -4.37651 -0.703775 -1.91553
upperback 1.38963 -0.883462 1.71991
thorax 3.94734 -0.505463 2.78523
lowerneck -12.8071 13.9136 9.35584
upperneck 25.5717 20.3027 -6.83571
head 12.2162 9.48431 -0.842786
rclavicle 1.83876e-014 -7.95139e-015
rhumerus -30.6357 -6.42937 -77.6937
rradius 27.3119
rwrist -8.4987
rhand -10.5016 -29.344
rfingers 7.12502
rthumb 15.5006 -58.7426
lclavicle 1.83876e-014 -7.95139e-015
lhumerus -29.0456 10.3443 90.019
lradius 29.1427
lwrist 11.6278
lhand -22.744 -15.6618
lfingers 7.12502
lthumb 3.69036 14.286
rfemur -13.0157 0.498049 15.7637
rtibia 30.3578
rfoot -27.2861 -20.957
rtoes 5.71781
lfemur -16.2405 -0.39524 -16.1573
ltibia 32.8219
lfoot -22.8991 16.0024
ltoes -0.926221
48
root -30.8296 16.3003 3.21685 -186.307 79.5825 -193.121
lowerback -4.6838 -0.537162 -1.67464
upperback 1.33916 -0.672731 1.75667
thorax 4.05259 -0.395575 2.70265
lowerneck -11.94 14.723 10.367
upperneck 25.0215 21.4491 -7.44534
head 12.1479 10.0586 -1.0455
rclavicle -2.98177e-015 -4.77083e-015
rhumerus -30.378 -7.23642 -77.1964
rradius 26.7975
rwrist -7.71113
rhand -10.8907 -29.3288
rfingers 7.12502
rthumb 15.1257 -58.756
lclavicle -2.98177e-015 -4.77083e-015
lhumerus -29.0591 10.5216 89.9267
lradius 28.5592
lwrist 11.5781
lhand -22.8629 -15.4078
lfingers 7.12502
lthumb 3.57553 14.542
rfemur -13.1726 0.626049 16.0153
rtibia 30.2866
rfoot -27.2212 -21.2459
rtoes 5.49568
lfemur -16.1912 -1.10042 -15.9289
ltibia 32.4444
lfoot -22.4537 16.7857
ltoes 0.317072
49
root -30.8087 16.3007 3.21361 -186.221 79.3651 -193.018
lowerback -5.01907 -0.477453 -1.72766
upperback 1.43214 -0.58657 1.74599
thorax 4.33434 -0.358385 2.72759
lowerneck -11.0871 15.4322 11.2593
upperneck 24.3562 22.486 -8.12126
head 12.0413 10.5705 -1.27128
rclavicle 9.93923e-015 1.03368e-014
rhumerus -30.1123 -7.86166 -76.8127
rradius 26.4487
rwrist -7.27197
rhand -11.4421 -29.4724
rfingers 7.12502
rthumb 14.5946 -58.9389
lclavicle 9.93923e-015 1.03368e-014
lhumerus -28.8602 10.7032 89.7789
lradius 27.7507
lwrist 11.1522
lhand -22.6194 -15.4245
lfingers 7.12502
lthumb 3.81068 14.5212
rfemur -12.959 0.577037 15.984
rtibia 30.1923
rfoot -27.4938 -21.1903
rtoes 6.2349
lfemur -15.9534 -1.87146 -15.9349
ltibia 32.1424
lfoot -22.0853 17.337
ltoes -1.24971
